<svg width="29" height="31" viewBox="0 0 29 31" fill="none" xmlns="http://www.w3.org/2000/svg">
<path d="M24.8176 10.531L24.4879 11.1172L24.3232 11.4103L23.8286 12.2896L23.6088 12.6804L23.334 13.1689L22.8393 14.0482L22.7294 14.2436L22.6624 14.3628C22.696 14.2881 22.7189 14.2076 22.7294 14.1233C22.7327 14.0987 22.7346 14.0735 22.7356 14.0482C22.736 14.0377 22.7362 14.027 22.7362 14.0165C22.7362 13.5483 22.3568 13.1689 21.8887 13.1689H21.8819C21.8712 13.1689 21.8607 13.1691 21.8501 13.1696V13.1689H11.1281L11.2983 13.4792L11.6104 14.0482L12.0926 14.9275L12.1777 15.0827L12.5748 15.8069L13.057 16.6862V21.9621L12.5719 21.0828L12.1777 20.3684L12.0868 20.2035L11.6016 19.3242L11.2984 18.7746L11.1165 18.4449L10.6314 17.5656L10.4191 17.1809L10.1463 16.6863L9.66112 15.807L9.17599 14.9277L8.69087 14.0484L8.66051 13.9935L8.20574 13.1691L7.78121 12.3997L7.7205 12.2898L7.23537 11.4105L6.9018 10.806L6.75024 10.5312H24.818L24.8176 10.531Z" fill="white"/>
<path d="M22.7358 14.0165C22.7358 14.0272 22.7356 14.0377 22.7352 14.0482H22.7284C22.7288 14.0377 22.7291 14.027 22.7291 14.0165C22.7291 13.5497 22.3517 13.1711 21.8855 13.1689H21.8883C22.3563 13.1689 22.7358 13.5484 22.7358 14.0165Z" fill="white"/>
<path d="M21.8853 13.1689C21.8757 13.1689 21.866 13.1693 21.8564 13.1696C21.8541 13.1696 21.8519 13.1698 21.8496 13.1699V13.1696C21.8602 13.1692 21.8708 13.1689 21.8814 13.1689H21.8852H21.8853Z" fill="white"/>
<path d="M21.0804 14.0484L21.046 14.1096L21.0112 14.1715L20.9705 14.2438L20.5858 14.9278L20.0912 15.8071L19.5888 16.6864L19.0863 17.5657L18.5839 18.445L18.0814 19.3243L17.5789 20.2036L17.0765 21.0829L16.0715 22.8415L15.569 23.7208L15.0665 24.6001L14.5641 25.4794L14.0616 26.3587L13.5592 27.238L13.0567 28.1173L12.5542 27.238L12.0518 26.3587L11.5493 25.4794L11.0469 24.6001L10.5444 23.7208L10.042 22.8415L9.03693 21.0829L8.53447 20.2036L8.03201 19.3243L7.52956 18.445L7.0271 17.5657L6.52464 16.6864L5.51962 14.9278L5.01716 14.0485L4.5147 13.1692L4.01224 12.2899L3.50978 11.4106L3.00732 10.5312H5.76213L6.02207 11.0045L6.2451 11.4106L6.72808 12.2899L6.90138 12.6053L7.21105 13.1692L7.69403 14.0485L7.78068 14.2061L8.177 14.9278L8.65998 15.8071L9.14844 16.6864L9.53928 17.3898L9.63691 17.5657L10.1255 18.445L10.4186 18.9726L10.6139 19.3244L11.1024 20.2037L11.2978 20.5554L11.5909 21.0831L12.0795 21.9624L12.1771 22.1383L12.5679 22.8417L13.0564 23.721L13.5448 22.8417L13.9357 22.1383L14.0333 21.9624L14.5219 21.0831L14.815 20.5554L15.0104 20.2037L15.4988 19.3244L15.6942 18.9726L15.9873 18.445L16.4759 17.5657L16.5735 17.3898L16.9643 16.6864L17.2598 16.1544L17.2602 16.1538C17.2891 16.1083 17.3154 16.061 17.3389 16.0121V16.0118C17.3704 15.9463 17.3969 15.8779 17.4176 15.8071C17.4321 15.7578 17.444 15.7072 17.4528 15.6557C17.4661 15.579 17.4731 15.5002 17.4731 15.4197C17.4731 15.3392 17.4661 15.2603 17.4528 15.1836C17.4375 15.095 17.4136 15.0095 17.3822 14.9278C17.2406 14.5594 16.9446 14.2676 16.5735 14.1317C16.4264 14.0778 16.2676 14.0484 16.1018 14.0484H21.08H21.0804Z" fill="white"/>
<path d="M26.796 7.01367L26.3014 7.89297L26.2465 7.99071L25.3671 9.55395L25.3122 9.65169H2.5048L2.18134 9.08572L2.06692 8.8853V8.88519L2.00223 8.77228L1.49988 7.89297L0.997314 7.01367H7.75241L7.78072 7.06534V7.01367H26.796Z" fill="white"/>
</svg>
